<svg width="290" height="290" viewBox="0 0 290 290" fill="none" xmlns="http://www.w3.org/2000/svg">
<g id="Layer_1" clip-path="url(#clip0_171_173)">
<path id="Vector" d="M142.649 253.82L100.248 273.089C98.0585 274.084 95.4625 273.114 94.4673 270.925L16.9043 100.256C15.9091 98.0658 16.8855 95.4722 19.0753 94.477L155.402 32.5215C157.592 31.5263 160.188 32.4963 161.183 34.6861L172.646 59.9107C173.94 62.7574 177.294 64.0151 180.136 62.7233C182.979 61.4315 184.237 58.078 182.943 55.2314L171.479 30.0067C167.902 22.1366 158.593 18.6381 150.719 22.2169L14.3923 84.1725C6.51756 87.7513 3.03117 97.0648 6.60785 104.935L84.1709 275.604C87.7476 283.474 97.0566 286.973 104.931 283.394L147.332 264.124C150.175 262.832 151.432 259.479 150.139 256.632C148.845 253.786 145.491 252.528 142.649 253.82Z" fill="black" fill-opacity="0.1"/>
<path id="Vector_2" d="M230.089 172.639C227.246 173.93 225.988 177.284 227.282 180.13L238.746 205.355C239.741 207.545 238.765 210.138 236.575 211.134L211.349 222.598C208.506 223.89 207.249 227.243 208.542 230.09C209.836 232.936 213.19 234.194 216.032 232.902L241.258 221.438C249.132 217.859 252.619 208.546 249.042 200.676L237.578 175.451C236.285 172.604 232.931 171.347 230.089 172.639Z" fill="black" fill-opacity="0.1"/>
<path id="Vector_3" d="M74.7409 149.992C71.8985 151.284 70.6406 154.638 71.9343 157.484C73.228 160.331 76.5815 161.589 79.424 160.297L96.599 152.491C99.4414 151.2 100.699 147.846 99.4057 145C98.112 142.153 94.7584 140.895 91.9159 142.187L74.7409 149.992Z" fill="black" fill-opacity="0.1"/>
<path id="Vector_4" d="M159.518 117.681C158.224 114.834 154.871 113.576 152.028 114.868L117.678 130.479C114.836 131.771 113.578 135.124 114.872 137.971C116.165 140.817 119.519 142.075 122.361 140.783L156.711 125.173C159.554 123.881 160.812 120.527 159.518 117.681Z" fill="black" fill-opacity="0.1"/>
<path id="Vector_5" d="M89.5763 114.24L123.926 98.6294C126.769 97.3376 128.027 93.9841 126.733 91.1375C125.439 88.2909 122.086 87.0331 119.243 88.3249L84.8932 103.936C82.0508 105.228 80.7929 108.581 82.0866 111.428C83.3803 114.274 86.7338 115.532 89.5763 114.24Z" fill="black" fill-opacity="0.1"/>
<path id="Vector_6" d="M95.0342 194.645L137.972 175.132C140.814 173.84 142.072 170.487 140.778 167.64C139.485 164.793 136.131 163.536 133.289 164.827L90.3511 184.341C87.5087 185.633 86.2508 188.986 87.5445 191.833C88.8381 194.679 92.1917 195.937 95.0342 194.645Z" fill="black" fill-opacity="0.1"/>
<path id="Vector_7" d="M123.136 210.884L105.961 218.689C103.119 219.981 101.861 223.335 103.155 226.181C104.448 229.028 107.802 230.286 110.644 228.994L127.819 221.188C130.662 219.897 131.92 216.543 130.626 213.697C129.332 210.85 125.979 209.592 123.136 210.884Z" fill="black" fill-opacity="0.1"/>
<path id="Vector_8" d="M237.546 88.1872L200.076 74.134C197.147 73.0355 193.893 74.5146 192.798 77.4416L150.634 189.85C150.273 190.812 150.177 191.855 150.366 192.863L157.388 231.114C157.749 233.069 159.109 234.694 160.97 235.392C162.389 235.928 163.945 235.863 165.298 235.248C165.718 235.057 166.112 234.816 166.477 234.526L196.924 210.328C197.727 209.689 198.343 208.844 198.701 207.889L240.866 95.48C241.964 92.5512 240.483 89.2924 237.555 88.1939L237.546 88.1872ZM188.65 202.438L166.813 219.796L161.784 192.362L167.408 177.367L194.283 187.44L188.656 202.44L188.65 202.438ZM198.252 176.84L171.377 166.768L201.403 86.7202L228.275 96.7987L198.252 176.84Z" fill="black" fill-opacity="0.1"/>
</g>
<defs>
<clipPath id="clip0_171_173">
<rect width="218.83" height="218.83" fill="white" transform="translate(0.119873 90.6588) rotate(-24.4401)"/>
</clipPath>
</defs>
</svg>
