<svg width="302" height="302" viewBox="0 0 302 302" fill="none" xmlns="http://www.w3.org/2000/svg">
<g id="Livello_1" clip-path="url(#clip0_171_290)">
<path id="Vector" d="M146.941 217.212L152.415 229.463C155.133 235.547 162.265 238.274 168.349 235.556L275.233 187.8C281.317 185.082 284.044 177.951 281.326 171.867L230.585 58.3009L153.274 28.7398L88.8127 57.5408C82.7285 60.2591 80.0018 67.3904 82.7201 73.4746L102.047 116.732" stroke="black" stroke-opacity="0.1" stroke-width="10" stroke-linecap="round" stroke-linejoin="round"/>
<path id="Vector_2" d="M109.117 132.556L139.518 200.597" stroke="black" stroke-opacity="0.1" stroke-width="10" stroke-linecap="round" stroke-linejoin="round"/>
<path id="Vector_3" d="M153.274 28.7398L230.585 58.3009L186.429 78.0294C181.303 80.3201 175.293 78.0222 173.002 72.8954L153.274 28.7398Z" stroke="black" stroke-opacity="0.1" stroke-width="10" stroke-linecap="round" stroke-linejoin="round"/>
<g id="Group">
<path id="Vector_4" d="M133.488 142.533L164.759 128.562" stroke="black" stroke-opacity="0.1" stroke-width="10" stroke-linecap="round" stroke-linejoin="round"/>
<path id="Vector_5" d="M148.492 176.115L177.338 163.227" stroke="black" stroke-opacity="0.1" stroke-width="10" stroke-linecap="round" stroke-linejoin="round"/>
<path id="Vector_6" d="M140.991 159.326L175.818 143.765" stroke="black" stroke-opacity="0.1" stroke-width="10" stroke-linecap="round" stroke-linejoin="round"/>
</g>
<path id="Vector_7" d="M177.453 192.878C197.971 177.177 201.876 147.815 186.175 127.297C170.473 106.779 141.112 102.874 120.594 118.575C100.076 134.277 96.1709 163.638 111.872 184.156C127.574 204.674 156.935 208.579 177.453 192.878Z" stroke="black" stroke-opacity="0.1" stroke-width="10" stroke-linecap="round" stroke-linejoin="round"/>
<path id="Vector_8" d="M185.93 203.968C212.559 183.583 217.621 145.469 197.236 118.839C176.85 92.2094 138.736 87.1475 112.106 107.533C85.4767 127.919 80.4149 166.033 100.801 192.662C121.186 219.292 159.3 224.354 185.93 203.968Z" stroke="black" stroke-opacity="0.1" stroke-width="10" stroke-linecap="round" stroke-linejoin="round"/>
<path id="Vector_9" d="M96.6699 292.652C102.325 294.815 108.721 291.957 110.883 286.302L128.082 241.322C130.244 235.667 127.386 229.271 121.732 227.109C116.077 224.946 109.68 227.804 107.518 233.459L90.3194 278.439C88.1572 284.094 91.0152 290.49 96.6699 292.652Z" stroke="black" stroke-opacity="0.1" stroke-width="10" stroke-linecap="round" stroke-linejoin="round"/>
<path id="Vector_10" d="M127.141 212.96L122.121 226.09" stroke="black" stroke-opacity="0.1" stroke-width="10" stroke-linecap="round" stroke-linejoin="round"/>
</g>
<defs>
<clipPath id="clip0_171_290">
<rect width="228.442" height="228.442" fill="white" transform="translate(0 93.1881) rotate(-24.0749)"/>
</clipPath>
</defs>
</svg>
