<svg width="96" height="95" viewBox="0 0 96 95" fill="none" xmlns="http://www.w3.org/2000/svg">
<g clip-path="url(#clip0_52_1085)">
<path d="M35.252 72.0176V77.5979C35.252 80.3692 37.4971 82.6142 40.2683 82.6142H88.9521C91.7234 82.6142 93.9684 80.3692 93.9684 77.5979V25.8708L69.6292 1.53162L40.2683 1.53162C37.4971 1.53162 35.252 3.7767 35.252 6.54793V26.251" stroke="white" stroke-width="4" stroke-linecap="round" stroke-linejoin="round"/>
<path d="M35.252 33.4583V64.4498" stroke="white" stroke-width="4" stroke-linecap="round" stroke-linejoin="round"/>
<path d="M69.6293 1.53162L93.9685 25.8708H73.8564C71.5212 25.8708 69.6293 23.9789 69.6293 21.6437V1.53162Z" stroke="white" stroke-width="4" stroke-linecap="round" stroke-linejoin="round"/>
<path d="M42.8125 41.381H57.056" stroke="white" stroke-width="4" stroke-linecap="round" stroke-linejoin="round"/>
<path d="M42.8125 56.6768H55.9515" stroke="white" stroke-width="4" stroke-linecap="round" stroke-linejoin="round"/>
<path d="M42.8125 49.0298H58.6759" stroke="white" stroke-width="4" stroke-linecap="round" stroke-linejoin="round"/>
<path d="M50.9651 67.9544C61.4191 65.4736 67.8827 54.9877 65.4018 44.5337C62.921 34.0797 52.4351 27.6161 41.9811 30.097C31.527 32.5779 25.0635 43.0637 27.5444 53.5177C30.0252 63.9718 40.5111 70.4353 50.9651 67.9544Z" stroke="white" stroke-width="4" stroke-linecap="round" stroke-linejoin="round"/>
<path d="M52.3021 73.6033C65.8713 70.3807 74.2589 56.7682 71.0363 43.1989C67.8136 29.6296 54.2011 21.242 40.6318 24.4647C27.0626 27.6873 18.675 41.2999 21.8976 54.8691C25.1203 68.4384 38.7328 76.826 52.3021 73.6033Z" stroke="white" stroke-width="4" stroke-linecap="round" stroke-linejoin="round"/>
<path d="M3.36672 92.1333C5.14693 93.9135 8.0605 93.9135 9.84071 92.1333L24.0013 77.9727C25.7816 76.1925 25.7816 73.2789 24.0013 71.4987C22.2211 69.7185 19.3076 69.7185 17.5273 71.4987L3.36672 85.6593C1.5865 87.4395 1.5865 90.3531 3.36672 92.1333Z" stroke="white" stroke-width="4" stroke-linecap="round" stroke-linejoin="round"/>
<path d="M28.4555 67.0445L24.3221 71.1779" stroke="white" stroke-width="4" stroke-linecap="round" stroke-linejoin="round"/>
</g>
<defs>
<clipPath id="clip0_52_1085">
<rect width="95" height="95" fill="white" transform="translate(0.5)"/>
</clipPath>
</defs>
</svg>
