<svg width="292" height="268" viewBox="0 0 292 268" fill="none" xmlns="http://www.w3.org/2000/svg">
<g id="_&#216;&#163;&#226;&#128;&#152;&#216;&#163;&#194;&#171;&#216;&#163;&#194;&#174;&#216;&#163;&#194;&#169;_2" clip-path="url(#clip0_171_188)">
<path id="Vector" d="M105.856 199.002L124.302 242.839L89.8853 257.321L73.235 217.752" stroke="black" stroke-opacity="0.15" stroke-width="6" stroke-linecap="round" stroke-linejoin="round"/>
<path id="Vector_2" d="M62.546 192.349L54.886 174.145L89.3031 159.663L95.3846 174.115" stroke="black" stroke-opacity="0.15" stroke-width="6" stroke-linecap="round" stroke-linejoin="round"/>
<path id="Vector_3" d="M151.257 162.485L175.928 221.116L141.511 235.598L119.516 183.327" stroke="black" stroke-opacity="0.15" stroke-width="6" stroke-linecap="round" stroke-linejoin="round"/>
<path id="Vector_4" d="M108.874 158.035L86.0411 103.773L120.458 89.2907L140.754 137.524" stroke="black" stroke-opacity="0.15" stroke-width="6" stroke-linecap="round" stroke-linejoin="round"/>
<path id="Vector_5" d="M201.796 138.203L227.545 199.396L193.137 213.874L171.165 161.659" stroke="black" stroke-opacity="0.15" stroke-width="6" stroke-linecap="round" stroke-linejoin="round"/>
<path id="Vector_6" d="M160.499 136.311L149.194 109.443L183.602 94.9649L192.196 115.39" stroke="black" stroke-opacity="0.15" stroke-width="6" stroke-linecap="round" stroke-linejoin="round"/>
<path id="Vector_7" d="M239.327 82.9841L279.17 177.673L244.753 192.155L217.049 126.316" stroke="black" stroke-opacity="0.15" stroke-width="6" stroke-linecap="round" stroke-linejoin="round"/>
<path id="Vector_8" d="M201.962 90.4613L173.13 21.9403L207.547 7.45811L227.408 54.6596" stroke="black" stroke-opacity="0.15" stroke-width="6" stroke-linecap="round" stroke-linejoin="round"/>
<path id="Vector_9" d="M50.8816 204.721C74.5598 207.028 97.4699 195.598 109.864 175.291C118.126 161.769 132.305 152.949 148.089 151.526L156.033 150.809C173.917 149.196 189.983 139.214 199.34 123.884L239.049 58.8857" stroke="black" stroke-opacity="0.15" stroke-width="6" stroke-linecap="round" stroke-linejoin="round"/>
</g>
<defs>
<clipPath id="clip0_171_188">
<rect width="236.01" height="190.67" fill="white" transform="translate(0 91.5359) rotate(-22.8206)"/>
</clipPath>
</defs>
</svg>
