<svg width="114" height="91" viewBox="0 0 114 91" fill="none" xmlns="http://www.w3.org/2000/svg">
<g clip-path="url(#clip0_52_1153)">
<path d="M26.9966 66.8695V89.5682H8.96021L8.96021 69.0792" stroke="white" stroke-width="3" stroke-linecap="round" stroke-linejoin="round"/>
<path d="M8.96021 55.9258V46.4999H26.9966V53.9834" stroke="white" stroke-width="3" stroke-linecap="round" stroke-linejoin="round"/>
<path d="M54.0511 59.2094V89.5682H36.0148V62.5025" stroke="white" stroke-width="3" stroke-linecap="round" stroke-linejoin="round"/>
<path d="M36.0148 49.4064V21.3098H54.0511V46.2851" stroke="white" stroke-width="3" stroke-linecap="round" stroke-linejoin="round"/>
<path d="M81.1009 57.8826V89.5682H63.0693V62.5312" stroke="white" stroke-width="3" stroke-linecap="round" stroke-linejoin="round"/>
<path d="M63.0693 49.4064V35.4941H81.1009V46.0703" stroke="white" stroke-width="3" stroke-linecap="round" stroke-linejoin="round"/>
<path d="M108.155 40.5388V89.5682H90.119V55.4772" stroke="white" stroke-width="3" stroke-linecap="round" stroke-linejoin="round"/>
<path d="M90.119 36.9116V1.43176L108.155 1.43176V25.8725" stroke="white" stroke-width="3" stroke-linecap="round" stroke-linejoin="round"/>
<path d="M1.4491 59.2095C11.5589 64.6073 23.9003 63.8198 33.2228 57.1811C39.4346 52.7616 47.3998 51.5064 54.6935 53.8021L58.3646 54.9571C66.6292 57.5581 75.6522 56.1407 82.69 51.1294L112.546 29.8864" stroke="white" stroke-width="3" stroke-linecap="round" stroke-linejoin="round"/>
</g>
<defs>
<clipPath id="clip0_52_1153">
<rect width="114" height="91" fill="white"/>
</clipPath>
</defs>
</svg>
