<svg width="64" height="24" viewBox="0 0 64 24" fill="none" xmlns="http://www.w3.org/2000/svg">
<path d="M62.4516 13.5C63.28 13.5 63.9516 12.8284 63.9516 12C63.9516 11.1716 63.28 10.5 62.4516 10.5V13.5ZM0.48768 10.9393C-0.0981068 11.5251 -0.0981068 12.4749 0.48768 13.0607L10.0336 22.6066C10.6194 23.1924 11.5692 23.1924 12.1549 22.6066C12.7407 22.0208 12.7407 21.0711 12.1549 20.4853L3.66966 12L12.1549 3.51472C12.7407 2.92893 12.7407 1.97918 12.1549 1.3934C11.5692 0.807612 10.6194 0.807612 10.0336 1.3934L0.48768 10.9393ZM62.4516 10.5H1.54834V13.5H62.4516V10.5Z" fill="#B3B3B3"/>
</svg>
