<svg width="103" height="64" viewBox="0 0 103 64" fill="none" xmlns="http://www.w3.org/2000/svg">
<g clip-path="url(#clip0_52_2174)">
<path d="M73.9683 18.0482C70.0118 18.0482 66.7953 21.2605 66.7953 25.2117V30.1243C64.9907 30.2374 63.5562 31.7342 63.5562 33.5628V44.9791C63.5562 46.8793 65.104 48.4251 67.0067 48.4251H80.9223C82.825 48.4251 84.3729 46.8793 84.3729 44.9791V33.5628C84.3729 31.7342 82.9383 30.2374 81.1337 30.1243V25.2117C81.1337 21.2605 77.9172 18.0482 73.9607 18.0482H73.9683ZM73.9683 20.3104C76.6751 20.3104 78.8761 22.5084 78.8761 25.2117V30.113H69.0605V25.2117C69.0605 22.5084 71.2614 20.3104 73.9683 20.3104ZM82.1153 33.5628V44.9791C82.1153 45.6314 81.5829 46.163 80.9298 46.163H67.0143C66.3612 46.163 65.8288 45.6314 65.8288 44.9791V33.5628C65.8288 32.9105 66.3612 32.3789 67.0143 32.3789H80.9298C81.5829 32.3789 82.1153 32.9105 82.1153 33.5628Z" fill="#363478" fill-opacity="0.8"/>
<path d="M79.616 36.9107C78.9968 36.9937 78.5627 37.563 78.642 38.1776C78.642 38.2002 78.8987 40.2851 77.6981 41.4501C76.8865 42.2381 75.5236 42.4945 73.6398 42.2042C73.0244 42.1062 72.443 42.5322 72.3486 43.1505C72.2542 43.7688 72.6771 44.3457 73.2962 44.4399C75.467 44.7717 77.7321 44.5945 79.2951 43.0525C81.3035 41.0806 80.9033 38.0004 80.8844 37.8722C80.7976 37.2576 80.2276 36.8278 79.6122 36.907L79.616 36.9107Z" fill="#363478" fill-opacity="0.8"/>
<path d="M28.2726 36.4432C38.3336 36.4432 46.5184 28.2693 46.5184 18.2216C46.5184 8.1739 38.3336 0 28.2726 0C18.2116 0 10.0269 8.1739 10.0269 18.2216C10.0269 28.2693 18.2116 36.4432 28.2726 36.4432ZM28.2726 2.26215C37.084 2.26215 44.2532 9.42186 44.2532 18.2216C44.2532 27.0214 37.084 34.1811 28.2726 34.1811C19.4612 34.1811 12.292 27.0214 12.292 18.2216C12.292 9.42186 19.4612 2.26215 28.2726 2.26215Z" fill="#363478" fill-opacity="0.8"/>
<path d="M32.7616 38.5056H23.7803C10.6688 38.5056 0 46.442 0 56.1919V61.2251C0 61.851 0.505883 62.3562 1.13257 62.3562C1.75926 62.3562 2.26515 61.851 2.26515 61.2251V56.1919C2.26515 47.6862 11.9184 40.7678 23.7803 40.7678H32.7616C44.6272 40.7678 54.2767 47.6862 54.2767 56.1919V61.2251C54.2767 61.851 54.7826 62.3562 55.4093 62.3562C56.036 62.3562 56.5418 61.851 56.5418 61.2251V56.1919C56.5418 46.4382 45.873 38.5056 32.7616 38.5056Z" fill="#363478" fill-opacity="0.8"/>
<path d="M74.2744 6.62439C70.2801 6.62439 60.9289 6.62439 51.0717 15.7371C50.6111 16.1594 50.5847 16.8757 51.0113 17.3357C51.4341 17.7956 52.1514 17.822 52.612 17.396C61.816 8.88654 70.5444 8.88654 74.2744 8.88654C88.8657 8.88654 100.735 20.7402 100.735 35.3122C100.735 49.8842 88.8657 61.7379 74.2744 61.7379C69.9857 61.7379 65.8933 60.7463 62.1105 58.7858C61.5556 58.4993 60.8722 58.7142 60.5853 59.2684C60.2984 59.8226 60.5136 60.505 61.0685 60.7916C65.1156 62.8878 69.6837 63.9963 74.2744 63.9963C90.1115 63.9963 103 51.1284 103 35.3085C103 19.4885 90.1153 6.62439 74.2744 6.62439Z" fill="#363478" fill-opacity="0.8"/>
</g>
<defs>
<clipPath id="clip0_52_2174">
<rect width="103" height="64" fill="white"/>
</clipPath>
</defs>
</svg>
